<svg width="32" height="33" viewBox="0 0 32 33" fill="none" xmlns="http://www.w3.org/2000/svg">
<g clip-path="url(#clip0_28_17)">
<path d="M30.1365 19.2867C29.3835 18.6019 28.4107 18.2083 27.3931 18.1784C27.5659 17.2814 27.7248 15.1384 26.5099 14.9816C25.2907 14.9262 23.9808 15.3934 23.2405 16.3875C22.7669 16.0547 22.2016 15.8766 21.6224 15.8755C20.576 15.8798 20.576 17.4712 21.6224 17.4755C22.2773 17.4787 22.816 17.9939 22.848 18.6488C14.8757 15.8659 13.6352 25.6184 18.1643 30.092C19.5424 31.563 21.7952 32.0195 23.6427 31.2185C25.5211 32.0334 27.7077 31.5822 29.1115 30.092C31.7483 27.3187 32.9579 22.332 30.1365 19.2867ZM24.6133 17.1939C25.7707 16.1966 26.3147 16.5966 25.7419 18.0078C24.5803 18.9998 24.0469 18.6051 24.6133 17.1939ZM30.0587 24.4344C29.8069 27.2398 27.4304 31.1907 24.1685 29.7112C23.8496 29.5427 23.4677 29.5715 23.1392 29.6984C21.8283 30.3288 20.2581 30.0259 19.2768 28.9518C16.8864 26.7203 15.6299 19.9192 20.2571 19.7752C21.6309 19.6547 23.0261 20.7491 24.1301 20.4526C28.2699 18.6072 30.5888 20.7288 30.0587 24.4344Z" fill="#838383"/>
<path d="M15.6683 30.0174H4.4C2.98986 30.0142 1.84853 28.8729 1.84533 27.4627V9.27819C1.84533 7.86379 2.99093 6.71819 4.40533 6.71819H6.51733C6.37866 7.78485 6.99946 8.84725 8.1568 8.84832H17.1723C18.3243 8.84939 18.9536 7.78699 18.8128 6.72245H20.9301C22.3413 6.72565 23.4837 7.87125 23.4837 9.28245V12.7054C23.4869 13.7497 25.0795 13.7529 25.0837 12.7054V9.27819C25.0837 6.98272 23.2256 5.12139 20.9301 5.11819H18.8128C18.9205 4.19659 18.5163 3.28885 17.4827 3.26965H16.1643C15.4101 -0.509546 9.9552 -0.488213 9.1776 3.26859H7.8464C6.81493 3.28565 6.40746 4.20299 6.51733 5.12352H4.4C2.10453 5.12672 0.245331 6.98805 0.245331 9.28352V27.4627C0.248531 29.7561 2.10666 31.6142 4.4 31.6174H15.6683C16.7104 31.6089 16.7189 30.0249 15.6683 30.0174ZM8.11733 4.86859H9.89973C10.3488 4.85045 10.7029 4.48032 10.6997 4.03125C10.7339 1.36032 14.6805 1.36245 14.6336 4.06539C14.6336 4.50699 14.992 4.86539 15.4336 4.86539H17.2085L17.1723 7.24512L8.11733 7.20779V4.86859Z" fill="#838383"/>
<path d="M18.8128 15.7806C18.8128 15.339 18.4544 14.9806 18.0128 14.9806H6.08853C5.64693 14.9806 5.28853 15.339 5.28853 15.7806C5.28853 16.2222 5.64693 16.5806 6.08853 16.5806H18.0128C18.4555 16.5806 18.8128 16.2222 18.8128 15.7806Z" fill="#838383"/>
<path d="M7.7824 20.3544C6.73813 20.3587 6.73493 21.9502 7.7824 21.9544H13.5883C14.6325 21.9502 14.6357 20.3587 13.5883 20.3544H7.7824Z" fill="#838383"/>
</g>
<defs>
<clipPath id="clip0_28_17">
<rect width="32" height="32" fill="white" transform="translate(0 0.03125)"/>
</clipPath>
</defs>
</svg>
