<svg width="34" height="34" viewBox="0 0 34 34" fill="none" xmlns="http://www.w3.org/2000/svg">
<path d="M28.3653 14.5015L18.0528 4.76911L18.0412 4.7588C17.7098 4.45534 17.2768 4.28702 16.8275 4.28702C16.3782 4.28702 15.9452 4.45534 15.6139 4.7588L15.6023 4.76911L5.28978 14.5015C5.10738 14.6714 4.96213 14.8771 4.86318 15.1059C4.76423 15.3346 4.71373 15.5813 4.71486 15.8306V27.7479C4.71486 28.2266 4.905 28.6856 5.24344 29.024C5.58189 29.3625 6.04092 29.5526 6.51955 29.5526H12.707C13.1857 29.5526 13.6447 29.3625 13.9832 29.024C14.3216 28.6856 14.5117 28.2266 14.5117 27.7479V21.5604C14.5117 21.4921 14.5389 21.4265 14.5872 21.3781C14.6356 21.3298 14.7012 21.3026 14.7696 21.3026H18.8946C18.9629 21.3026 19.0285 21.3298 19.0769 21.3781C19.1252 21.4265 19.1524 21.4921 19.1524 21.5604V27.7479C19.1524 28.2266 19.3425 28.6856 19.6809 29.024C20.0194 29.3625 20.4784 29.5526 20.9571 29.5526H27.1445C27.6232 29.5526 28.0822 29.3625 28.4207 29.024C28.7591 28.6856 28.9492 28.2266 28.9492 27.7479V15.8306C28.9492 15.5807 28.8973 15.3335 28.7968 15.1047C28.6963 14.876 28.5493 14.6706 28.3653 14.5015ZM27.4024 27.7479C27.4024 27.8163 27.3752 27.8819 27.3269 27.9302C27.2785 27.9786 27.2129 28.0057 27.1445 28.0057H20.9571C20.8887 28.0057 20.8231 27.9786 20.7747 27.9302C20.7264 27.8819 20.6992 27.8163 20.6992 27.7479V21.5604C20.6992 21.0818 20.5091 20.6228 20.1707 20.2843C19.8322 19.9459 19.3732 19.7557 18.8946 19.7557H14.7696C14.2909 19.7557 13.8319 19.9459 13.4934 20.2843C13.155 20.6228 12.9649 21.0818 12.9649 21.5604V27.7479C12.9649 27.8163 12.9377 27.8819 12.8894 27.9302C12.841 27.9786 12.7754 28.0057 12.707 28.0057H6.51955C6.45117 28.0057 6.3856 27.9786 6.33725 27.9302C6.2889 27.8819 6.26174 27.8163 6.26174 27.7479V15.8306C6.26166 15.7947 6.26907 15.7592 6.2835 15.7263C6.29793 15.6935 6.31905 15.664 6.34553 15.6398L6.35713 15.6295L16.6619 5.89962C16.7089 5.85863 16.7691 5.83605 16.8314 5.83605C16.8937 5.83605 16.954 5.85863 17.0009 5.89962L27.307 15.6307L27.3173 15.6411C27.344 15.6652 27.3654 15.6946 27.38 15.7274C27.3947 15.7603 27.4023 15.7959 27.4024 15.8318V27.7479Z" fill="#838383"/>
</svg>
