<svg width="32" height="32" viewBox="0 0 32 32" fill="none" xmlns="http://www.w3.org/2000/svg">
<path id="Vector" d="M21.5012 21.7929C21.7206 22.0123 21.87 22.2918 21.9306 22.5961C21.9912 22.9004 21.9601 23.2158 21.8414 23.5025C21.7227 23.7891 21.5217 24.0341 21.2637 24.2065C21.0057 24.3789 20.7024 24.4709 20.3922 24.4709C20.0819 24.4709 19.7786 24.3789 19.5206 24.2065C19.2627 24.0341 19.0616 23.7891 18.9429 23.5025C18.8242 23.2158 18.7931 22.9004 18.8537 22.5961C18.9143 22.2918 19.0637 22.0123 19.2831 21.7929C19.5773 21.4989 19.9762 21.3337 20.3922 21.3337C20.8081 21.3337 21.207 21.4989 21.5012 21.7929ZM9.24393 20.538C9.0245 20.7574 8.87506 21.0369 8.81449 21.3412C8.75393 21.6455 8.78497 21.9609 8.90368 22.2476C9.02239 22.5342 9.22344 22.7792 9.48141 22.9516C9.73938 23.124 10.0427 23.216 10.3529 23.216C10.6632 23.216 10.9665 23.124 11.2245 22.9516C11.4824 22.7792 11.6835 22.5342 11.8022 22.2476C11.9209 21.9609 11.952 21.6455 11.8914 21.3412C11.8308 21.0369 11.6814 20.7574 11.462 20.538C11.1678 20.244 10.7689 20.0788 10.3529 20.0788C9.937 20.0788 9.53809 20.244 9.24393 20.538ZM10.2071 13.9718C10.4265 13.7524 10.5759 13.4729 10.6365 13.1686C10.6971 12.8643 10.666 12.5489 10.5473 12.2622C10.4286 11.9756 10.2275 11.7306 9.96958 11.5582C9.71161 11.3858 9.40831 11.2938 9.09804 11.2938C8.78778 11.2938 8.48448 11.3858 8.22651 11.5582C7.96854 11.7306 7.76749 11.9756 7.64878 12.2622C7.53007 12.5489 7.49903 12.8643 7.55959 13.1686C7.62016 13.4729 7.7696 13.7524 7.98902 13.9718C8.28319 14.2658 8.6821 14.431 9.09804 14.431C9.51399 14.431 9.9129 14.2658 10.2071 13.9718ZM15.5184 14.2635C15.299 14.4829 15.1496 14.7624 15.089 15.0667C15.0284 15.371 15.0595 15.6864 15.1782 15.9731C15.2969 16.2597 15.498 16.5047 15.7559 16.6771C16.0139 16.8495 16.3172 16.9415 16.6275 16.9415C16.9377 16.9415 17.241 16.8495 17.499 16.6771C17.757 16.5047 17.958 16.2597 18.0767 15.9731C18.1954 15.6864 18.2265 15.371 18.1659 15.0667C18.1053 14.7624 17.9559 14.4829 17.7365 14.2635C17.4423 13.9695 17.0434 13.8043 16.6275 13.8043C16.2115 13.8043 15.8126 13.9695 15.5184 14.2635ZM32 16C32 19.1645 31.0616 22.2579 29.3035 24.8891C27.5454 27.5203 25.0466 29.5711 22.1229 30.7821C19.1993 31.9931 15.9823 32.3099 12.8786 31.6926C9.77486 31.0752 6.92394 29.5513 4.6863 27.3137C2.44866 25.0761 0.924806 22.2251 0.307443 19.1214C-0.309921 16.0177 0.00693228 12.8007 1.21793 9.87706C2.42894 6.95345 4.4797 4.45459 7.11088 2.69649C9.74207 0.938383 12.8355 0 16 0C16.2496 0 16.489 0.0991592 16.6655 0.275664C16.842 0.452169 16.9412 0.691561 16.9412 0.941176C16.9412 2.68848 17.6353 4.36423 18.8708 5.59976C20.1064 6.83529 21.7821 7.52941 23.5294 7.52941C23.779 7.52941 24.0184 7.62857 24.1949 7.80507C24.3714 7.98158 24.4706 8.22097 24.4706 8.47059C24.4706 10.2179 25.1647 11.8936 26.4002 13.1292C27.6358 14.3647 29.3115 15.0588 31.0588 15.0588C31.3084 15.0588 31.5478 15.158 31.7243 15.3345C31.9008 15.511 32 15.7504 32 16ZM30.0894 16.8863C28.1782 16.6636 26.3994 15.7978 25.0449 14.4311C23.6905 13.0644 22.8408 11.2779 22.6353 9.3647C20.7205 9.16082 18.932 8.31165 17.5636 6.95673C16.1953 5.60181 15.3286 3.82174 15.1059 1.90902C12.3946 2.07951 9.79 3.02866 7.6047 4.64262C5.41941 6.25657 3.74619 8.46676 2.7858 11.008C1.82541 13.5493 1.61864 16.3137 2.19029 18.9695C2.76195 21.6254 4.08776 24.0599 6.00864 25.981C7.92952 27.9021 10.3639 29.2281 13.0197 29.8001C15.6755 30.372 18.4399 30.1655 20.9813 29.2054C23.5226 28.2453 25.733 26.5723 27.3472 24.3872C28.9614 22.202 29.9108 19.5976 30.0816 16.8863H30.0894Z" fill="#838383"/>
</svg>
